<?xml version="1.0" encoding="utf-8"?>
<!-- Generator: Adobe Illustrator 17.0.0, SVG Export Plug-In . SVG Version: 6.00 Build 0)  -->
<!DOCTYPE svg PUBLIC "-//W3C//DTD SVG 1.1//EN" "http://www.w3.org/Graphics/SVG/1.1/DTD/svg11.dtd">
<svg version="1.1" id="Layer_1" xmlns="http://www.w3.org/2000/svg" xmlns:xlink="http://www.w3.org/1999/xlink" x="0px" y="0px"
	 width="30px" height="30px" viewBox="0 0 30 30" enable-background="new 0 0 30 30" xml:space="preserve">
<g>
	<path d="M10.047,30c0.003-1.86,0.007-3.721,0.01-5.581c0.001-0.901-0.006-1.802,0.005-2.703c0.003-0.205-0.055-0.342-0.225-0.472
		c-1.557-1.186-2.36-2.749-2.513-4.644c-0.061-0.758,0.182-1.451,0.429-2.143c0.206-0.577,0.456-1.14,0.709-1.764
		c-0.452,0.254-0.845,0.492-1.255,0.701c-1.458,0.743-3.176-0.053-3.484-1.61c-0.103-0.52,0.011-1.009,0.238-1.483
		c0.464-0.968,0.916-1.941,1.391-2.904c0.101-0.205,0.088-0.338-0.055-0.52C3.588,4.695,1.89,2.506,0.189,0.319
		C0.117,0.226,0.046,0.131,0,0c0.092,0.048,0.186,0.093,0.275,0.144C2.578,1.473,4.882,2.8,7.179,4.137
		c0.214,0.125,0.384,0.159,0.585-0.037c0-0.361-0.07-0.763,0.014-1.132c0.217-0.965,1.019-1.591,2.046-1.705
		c0.857-0.095,1.687,0.003,2.486,0.304c0.302,0.114,0.586,0.276,0.793-0.216c0.156,0.172,0.265,0.298,0.38,0.419
		c0.547,0.575,1.103,1.143,1.643,1.725c1.555,1.675,2.436,3.663,2.852,5.848c0.159,0.833,0.219,1.684,0.33,2.571
		c0.28-0.145,0.592-0.281,0.875-0.458c0.674-0.42,1.322-0.875,2.112-1.094c0.787-0.218,1.578-0.286,2.382-0.122
		c0.196,0.04,0.285-0.011,0.363-0.191c0.544-1.265,1.808-1.981,3.219-1.839c1.305,0.132,2.419,1.119,2.676,2.388
		c0.048,0.238,0.061,0.487,0.061,0.731c0.004,4.113,0.003,8.226,0.002,12.338c0,0.075-0.008,0.15-0.07,0.242
		c-0.509-0.891-1.019-1.782-1.528-2.673c-0.024,0.003-0.047,0.005-0.071,0.008c0,0.099,0,0.198,0,0.297c0,2.703,0,5.405-0.001,8.108
		c0,0.117-0.009,0.234-0.013,0.351c-2.057,0-4.114,0-6.171,0c-0.004-0.068-0.011-0.136-0.011-0.205c0-2.945,0.001-5.89,0.002-8.835
		c0-0.114,0-0.228,0-0.391c-1.878,0.881-3.697,1.799-5.795,2.06c0,2.466,0,4.919,0,7.372C14.242,30,12.144,30,10.047,30z
		 M27.209,27.23c0.004-0.087,0.009-0.145,0.009-0.202c0-3.594,0.008-7.187-0.003-10.781c-0.005-1.745-0.751-3.158-2.162-4.248
		c-0.738-0.571-1.577-0.814-2.526-0.758c-0.898,0.053-1.671,0.392-2.375,0.899c-1.655,1.19-3.552,1.337-5.503,1.201
		c-0.223-1.232-0.445-2.457-0.679-3.746c-0.211,0.261-0.354,0.461-0.52,0.642c-0.82,0.895-1.898,1.311-3.08,1.545
		c-0.116,0.023-0.264,0.115-0.311,0.213c-0.373,0.781-0.751,1.562-1.076,2.363c-0.22,0.543-0.445,1.108-0.514,1.681
		c-0.246,2.051,1.215,4.274,3.303,5.078c0.541,0.208,1.118,0.328,1.712,0.498c0,1.85,0,3.726,0,5.609c0.591,0,1.154,0,1.754,0
		c0-1.903,0-3.787,0-5.638c0.563-0.043,1.095-0.043,1.61-0.135c0.516-0.092,1.024-0.252,1.52-0.422
		c1.779-0.612,3.423-1.492,5.054-2.396c0.156-0.086,0.312-0.172,0.517-0.284c0,0.461-0.002,0.868,0,1.276
		c0.006,0.913,0.417,1.578,1.308,1.932c0.181,0.072,0.233,0.17,0.232,0.351c-0.007,1.655-0.004,3.31-0.004,4.965
		c0,0.114,0,0.228,0,0.357C26.069,27.23,26.625,27.23,27.209,27.23z M13.112,3.024c-0.35,0.38-0.66,0.715-0.967,1.051
		c-0.281,0.308-0.634,0.477-1.055,0.532c-0.725,0.094-1.449,0.188-2.172,0.297C8.093,5.029,7.497,5.469,7.148,6.193
		c-0.745,1.543-1.477,3.091-2.209,4.639c-0.158,0.333-0.187,0.678-0.031,1.024c0.322,0.715,1.139,0.949,1.895,0.527
		c0.801-0.446,1.585-0.919,2.392-1.356c0.259-0.14,0.56-0.213,0.848-0.295c0.399-0.113,0.821-0.164,1.203-0.315
		c1.141-0.449,1.933-1.183,1.991-2.455c0.023-0.513-0.125-0.988-0.36-1.439c-0.089-0.171-0.072-0.289,0.046-0.447
		C13.633,5.127,13.642,4.125,13.112,3.024z M28.876,19.694c0-0.058,0-0.116,0-0.174c0-2.75,0-5.5-0.001-8.25
		c0-0.108-0.004-0.215-0.014-0.323c-0.075-0.839-0.801-1.551-1.702-1.673c-0.884-0.119-1.792,0.398-2.103,1.186
		c-0.058,0.146-0.05,0.237,0.097,0.312c0.089,0.046,0.172,0.105,0.255,0.161c1.814,1.227,2.804,2.9,2.905,5.036
		c0.037,0.772,0.054,1.549,0.002,2.318C28.278,18.855,28.548,19.271,28.876,19.694z M14.701,4.674
		c-0.206,0.558-0.413,1.101-0.601,1.65c-0.03,0.088,0.009,0.208,0.042,0.305c0.185,0.537,0.425,1.061,0.56,1.609
		c0.309,1.253,0.566,2.517,0.852,3.775c0.023,0.099,0.101,0.266,0.155,0.267c0.471,0.006,0.942-0.018,1.431-0.034
		C17.121,9.422,16.429,6.873,14.701,4.674z M24.354,27.231c0-1.609,0-3.185-0.002-4.76c0-0.054-0.013-0.126-0.049-0.159
		c-0.35-0.312-0.707-0.617-1.037-0.901c0,1.912,0,3.865,0,5.82C23.631,27.231,23.974,27.231,24.354,27.231z M12.351,27.227
		c0-1.608,0-3.19,0-4.771c-0.385-0.128-0.757-0.251-1.153-0.382c0,1.723,0,3.429,0,5.152C11.581,27.227,11.953,27.227,12.351,27.227
		z M12.004,2.608c-0.784-0.301-1.533-0.395-2.296-0.225C9.04,2.532,8.664,3.199,8.882,3.773c0.716-0.082,1.431-0.162,2.145-0.251
		c0.084-0.011,0.181-0.058,0.239-0.118C11.509,3.156,11.739,2.896,12.004,2.608z M4.315,3.731C4.3,3.745,4.285,3.76,4.27,3.774
		c0.568,0.73,1.137,1.46,1.735,2.229c0.157-0.38,0.29-0.703,0.427-1.035c-0.063-0.044-0.109-0.081-0.16-0.11
		C5.62,4.482,4.968,4.106,4.315,3.731z M13.502,28.341c0,0.216,0,0.395,0,0.575c0.581,0,1.135,0,1.708,0c0-0.196,0-0.375,0-0.575
		C14.634,28.341,14.072,28.341,13.502,28.341z M27.199,28.914c0-0.202,0-0.383,0-0.576c-0.573,0-1.127,0-1.703,0
		c0,0.196,0,0.377,0,0.576C26.063,28.914,26.617,28.914,27.199,28.914z M11.199,28.908c0.398,0,0.775,0,1.156,0
		c0-0.198,0-0.372,0-0.565c-0.388,0-0.766,0-1.156,0C11.199,28.542,11.199,28.721,11.199,28.908z M23.265,28.335
		c0,0.214,0,0.395,0,0.574c0.371,0,0.72,0,1.066,0c0-0.203,0-0.383,0-0.574C23.966,28.335,23.623,28.335,23.265,28.335z"/>
	<path fill="#DB09DB" d="M27.209,27.23c-0.584,0-1.139,0-1.733,0c0-0.129,0-0.243,0-0.357c0-1.655-0.003-3.31,0.004-4.965
		c0.001-0.182-0.051-0.279-0.232-0.351c-0.891-0.354-1.303-1.019-1.308-1.932c-0.002-0.408,0-0.816,0-1.276
		c-0.205,0.113-0.361,0.198-0.517,0.284c-1.631,0.904-3.275,1.784-5.054,2.396c-0.496,0.171-1.004,0.331-1.52,0.422
		c-0.514,0.092-1.047,0.091-1.61,0.135c0,1.851,0,3.734,0,5.638c-0.599,0-1.162,0-1.754,0c0-1.884,0-3.76,0-5.609
		c-0.594-0.17-1.171-0.29-1.712-0.498c-2.088-0.805-3.548-3.027-3.303-5.078c0.069-0.572,0.294-1.137,0.514-1.681
		c0.325-0.801,0.703-1.582,1.076-2.363c0.047-0.098,0.194-0.19,0.311-0.213c1.181-0.234,2.26-0.651,3.08-1.545
		c0.166-0.181,0.31-0.381,0.52-0.642c0.233,1.288,0.456,2.514,0.679,3.746c1.951,0.136,3.848-0.011,5.503-1.201
		c0.705-0.507,1.477-0.846,2.375-0.899c0.948-0.056,1.787,0.188,2.526,0.758c1.411,1.091,2.156,2.504,2.162,4.248
		c0.011,3.594,0.004,7.187,0.003,10.781C27.218,27.085,27.213,27.143,27.209,27.23z"/>
	<path fill="#DB09DB" d="M13.112,3.024c0.53,1.101,0.521,2.103-0.19,3.054c-0.118,0.158-0.136,0.275-0.046,0.447
		c0.235,0.451,0.384,0.926,0.36,1.439c-0.058,1.273-0.85,2.006-1.991,2.455c-0.381,0.15-0.804,0.201-1.203,0.315
		c-0.288,0.082-0.59,0.155-0.848,0.295c-0.806,0.436-1.591,0.909-2.392,1.356c-0.756,0.421-1.573,0.187-1.895-0.527
		c-0.156-0.346-0.127-0.691,0.031-1.024c0.732-1.548,1.464-3.097,2.209-4.639c0.35-0.724,0.945-1.165,1.771-1.289
		c0.722-0.109,1.447-0.203,2.172-0.297c0.421-0.055,0.774-0.224,1.055-0.532C12.452,3.739,12.762,3.405,13.112,3.024z M7.526,7.603
		c0,0.868,0.736,1.592,1.615,1.588c0.921-0.003,1.656-0.703,1.659-1.578c0.003-0.865-0.737-1.593-1.615-1.588
		C8.263,6.031,7.526,6.732,7.526,7.603z"/>
	<path fill="#FFDE31" d="M28.876,19.694c-0.327-0.423-0.598-0.839-0.56-1.407c0.052-0.77,0.035-1.547-0.002-2.318
		c-0.102-2.135-1.091-3.808-2.905-5.036c-0.083-0.056-0.165-0.116-0.255-0.161c-0.148-0.075-0.155-0.166-0.097-0.312
		c0.311-0.788,1.219-1.305,2.103-1.186c0.901,0.122,1.627,0.834,1.702,1.673c0.01,0.107,0.014,0.215,0.014,0.323
		c0.001,2.75,0.001,5.5,0.001,8.25C28.876,19.578,28.876,19.636,28.876,19.694z"/>
	<path fill="#FFDE31" d="M14.701,4.674c1.728,2.199,2.42,4.748,2.439,7.572c-0.489,0.016-0.961,0.04-1.431,0.034
		c-0.054-0.001-0.132-0.168-0.155-0.267c-0.286-1.258-0.543-2.523-0.852-3.775c-0.135-0.548-0.375-1.072-0.56-1.609
		C14.109,6.532,14.07,6.412,14.1,6.324C14.288,5.775,14.495,5.232,14.701,4.674z"/>
	<path fill="#DB09DB" d="M24.354,27.231c-0.38,0-0.723,0-1.088,0c0-1.955,0-3.908,0-5.82c0.329,0.285,0.686,0.59,1.037,0.901
		c0.037,0.033,0.049,0.105,0.049,0.159C24.354,24.047,24.354,25.622,24.354,27.231z"/>
	<path fill="#DB09DB" d="M12.351,27.227c-0.398,0-0.77,0-1.153,0c0-1.723,0-3.429,0-5.152c0.396,0.131,0.767,0.254,1.153,0.382
		C12.351,24.037,12.351,25.619,12.351,27.227z"/>
	<path fill="#FFDE31" d="M12.004,2.608c-0.265,0.288-0.495,0.548-0.737,0.796c-0.058,0.06-0.154,0.107-0.239,0.118
		C10.313,3.611,9.598,3.69,8.882,3.773C8.664,3.199,9.04,2.532,9.707,2.383C10.471,2.213,11.22,2.307,12.004,2.608z"/>
	<path fill="#FFDE31" d="M4.315,3.731C4.968,4.106,5.62,4.482,6.272,4.858c0.051,0.029,0.097,0.066,0.16,0.11
		C6.296,5.3,6.162,5.624,6.006,6.003C5.407,5.234,4.839,4.504,4.27,3.774C4.285,3.76,4.3,3.745,4.315,3.731z"/>
	<path fill="#FFDE31" d="M13.502,28.341c0.57,0,1.132,0,1.708,0c0,0.199,0,0.379,0,0.575c-0.572,0-1.127,0-1.708,0
		C13.502,28.736,13.502,28.557,13.502,28.341z"/>
	<path fill="#FFDE31" d="M27.199,28.914c-0.582,0-1.136,0-1.703,0c0-0.199,0-0.38,0-0.576c0.576,0,1.131,0,1.703,0
		C27.199,28.531,27.199,28.712,27.199,28.914z"/>
	<path fill="#FFDE31" d="M11.199,28.908c0-0.186,0-0.365,0-0.565c0.391,0,0.768,0,1.156,0c0,0.193,0,0.367,0,0.565
		C11.973,28.908,11.597,28.908,11.199,28.908z"/>
	<path fill="#FFDE31" d="M23.265,28.335c0.358,0,0.7,0,1.066,0c0,0.191,0,0.371,0,0.574c-0.345,0-0.695,0-1.066,0
		C23.265,28.73,23.265,28.55,23.265,28.335z"/>
	<path d="M7.526,7.603c0-0.871,0.737-1.573,1.66-1.578c0.878-0.005,1.618,0.723,1.615,1.588c-0.003,0.875-0.739,1.574-1.659,1.578
		C8.262,9.195,7.526,8.472,7.526,7.603z M9.682,7.622C9.689,7.345,9.461,7.11,9.175,7.101C8.893,7.092,8.649,7.317,8.642,7.596
		C8.634,7.869,8.866,8.107,9.15,8.118C9.433,8.129,9.674,7.904,9.682,7.622z"/>
	<path fill="#0070FF" d="M9.682,7.622C9.674,7.904,9.433,8.129,9.15,8.118C8.866,8.107,8.634,7.869,8.642,7.596
		c0.008-0.278,0.251-0.504,0.534-0.495C9.461,7.11,9.689,7.345,9.682,7.622z"/>
</g>
</svg>
